<?xml version="1.0" encoding="UTF-8"?><svg id="Layer_1" xmlns="http://www.w3.org/2000/svg" viewBox="0 0 510.43 572.68"><defs><style>.cls-1{fill:#fff;}</style></defs><path class="cls-1" d="M281.73,344.28c.18-.16,.35-.33,.53-.49,.51,.21,1.05,.36,1.52,.63,17.55,10.4,35.08,20.83,52.66,31.19,2.73,1.61,4.25,3.87,4.73,6.94,.82,5.18,1.66,10.35,2.51,15.53,2.13,12.97,4.24,25.94,6.43,38.91,.7,4.17,3.05,5.49,7.2,4.66,5.21-1.05,10.45-2.01,15.71-2.8,4.11-.61,5.53-2.21,4.99-6.37-.89-6.76-1.78-13.53-2.76-20.28-.65-4.43-1.5-8.83-2.15-13.26-.1-.7,.18-1.8,.68-2.15,.48-.34,1.51-.06,2.23,.16,.61,.19,1.11,.71,1.69,1.05,14.53,8.46,29.06,16.94,43.62,25.34,3.56,2.06,6.01,1.12,7.89-2.67,2.25-4.55,4.46-9.12,6.79-13.62,2.46-4.74,1.92-6.63-2.75-9.3-14.83-8.45-29.65-16.92-44.45-25.43-.65-.38-1.62-1.3-1.5-1.69,.22-.72,1.02-1.47,1.76-1.78,11.35-4.76,22.73-9.45,34.1-14.17,3.87-1.61,4.55-3.42,2.71-7.23-2.42-5.02-4.86-10.03-7.27-15.06-1.53-3.18-3.49-4.12-6.9-3.19-.96,.26-1.89,.65-2.82,1.02-15.38,6.13-30.78,12.23-46.14,18.42-4.89,1.97-9.31,1.69-14.01-1.03-13.89-8.05-27.99-15.74-41.99-23.61-3.07-1.72-6.03-3.63-9.03-5.46,.08-.23,.15-.47,.23-.7,.69-.14,1.38-.39,2.07-.39,8.66-.02,17.31-.02,25.97,0,12,.03,23.99,.08,35.99,.11,4.23,0,5.89-1.46,5.92-5.32,.04-5.49,.03-10.99-.02-16.48-.05-4.87-.84-5.68-5.71-5.68-20.99,0-41.98,.06-62.97,.07-.78,0-1.56-.37-3-.73,1.53-1.01,2.39-1.64,3.3-2.18,17.47-10.36,34.96-20.71,52.43-31.07,2.33-1.38,4.63-1.48,7.14-.39,8.17,3.54,16.39,6.97,24.58,10.47,9.03,3.86,18.03,7.77,27.07,11.61,3.55,1.51,5.87,.69,7.12-2.58,2.28-5.99,4.47-12.01,6.58-18.06,1.05-3.01-.01-5.18-2.96-6.49-1.67-.74-3.41-1.32-5.11-2.02-8.38-3.44-16.77-6.88-25.13-10.37-.83-.35-1.49-1.1-2.24-1.66,.58-.74,1-1.74,1.75-2.19,13.07-7.82,26.19-15.57,39.29-23.36,1.93-1.15,3.84-2.33,5.63-3.68,1.83-1.37,2.23-3.22,1.16-5.32-2.82-5.57-5.56-11.18-8.46-16.71-1.61-3.07-3.83-3.57-6.86-1.81-13.54,7.84-27.08,15.7-40.64,23.52-2.41,1.39-4.91,2.61-7.61,4.04-.11-.95-.29-1.52-.22-2.06,.96-7.76,1.95-15.52,2.95-23.27,.62-4.78,1.43-9.55,1.89-14.34,.3-3.07-1.1-4.54-4.1-4.79-6.63-.57-13.27-1.12-19.91-1.58-4.44-.31-5.48,.59-6.06,4.97-2.37,17.9-4.76,35.8-7.05,53.72-.47,3.71-2.24,6.3-5.46,8.12-5.58,3.16-11.13,6.37-16.65,9.63-10.76,6.35-21.48,12.76-32.24,19.1-1.39,.82-2.97,1.33-4.46,1.98-.04-1.17,.24-1.76,.56-2.33,6.79-11.85,13.57-23.7,20.37-35.53,3.98-6.93,8.04-13.82,11.98-20.78,1.71-3.02,1.3-4.97-1.34-6.33-5.85-3-11.77-5.87-17.65-8.81-2.17-1.09-3.9-.37-5.32,1.3-.69,.81-1.18,1.81-1.73,2.74-10.62,17.8-21.24,35.61-31.88,53.41-.42,.71-.97,1.33-1.88,2.56-.2-1.4-.37-2.02-.37-2.64-.13-19.41-.18-38.82-.41-58.23-.07-5.77,2.18-10.01,6.77-13.38,13.89-10.21,27.7-20.54,41.52-30.84,2.86-2.14,3.16-4.31,1.23-7.04-3.71-5.22-7.4-10.46-11.05-15.74-2.49-3.6-4.67-4-8.05-1.24-8.58,7-17.13,14.05-25.75,21.01-1.01,.82-2.36,1.21-3.56,1.8-.25-1.37-.5-2.73-.74-4.1-.04-.24-.01-.5-.01-.75,0-16.41,0-32.82-.02-49.24,0-3.92-1.71-5.65-5.65-5.68-4.83-.04-9.65-.05-14.48-.01-6.94,.05-7.8,.84-7.8,7.77,0,16.58,.08,33.15,.08,49.73,0,.67-.3,1.79-.68,1.9-.63,.18-1.61-.09-2.16-.53-9.07-7.33-18.09-14.71-27.13-22.08-3.13-2.55-5.03-2.22-7.51,1.01-3.25,4.23-6.54,8.42-9.93,12.53-3.4,4.12-3.2,6.5,1.02,9.8,13.71,10.72,27.36,21.53,41.16,32.14,3.73,2.87,5.28,6.27,5.25,10.91-.12,19.75-.05,39.5-.06,59.25,0,.59-.13,1.18-.2,1.77-1.28-.94-2.02-2-2.68-3.11-10.34-17.39-20.68-34.79-31.01-52.18-2.35-3.96-4.58-4.5-8.73-2.4-4.67,2.37-9.39,4.66-14.12,6.9-4.19,1.98-4.78,3.82-2.47,7.83,10.27,17.82,20.52,35.65,30.77,53.48,.91,1.58,1.73,3.22,2.59,4.83-3.35-1.25-6.23-2.87-9.08-4.55-15.3-8.98-30.58-17.98-45.88-26.94-2.45-1.43-4.07-3.34-4.45-6.23-2.39-18.23-4.79-36.45-7.19-54.68-.6-4.57-2.42-6.08-6.88-5.35-5.33,.88-10.65,1.9-15.93,3.06-5.1,1.12-5.52,1.68-4.88,6.79,1.13,9,2.44,17.97,3.65,26.96,.36,2.68,.66,5.38,1.04,8.54-1.11-.37-1.84-.49-2.43-.83-14.92-8.62-29.83-17.26-44.74-25.9-4.41-2.55-6.66-1.93-9.2,2.45-2.55,4.39-5.1,8.79-7.79,13.09-3.04,4.86-2.56,7.03,2.44,9.84,5.23,2.93,10.48,5.83,15.69,8.79,9.41,5.35,18.8,10.73,28.17,16.14,.87,.5,1.58,1.3,2.36,1.97-.81,.73-1.51,1.71-2.45,2.14-10.53,4.79-21.1,9.47-31.64,14.23-3.28,1.48-4.4,3.71-3.2,6.86,2.11,5.51,4.43,10.94,6.67,16.4,.89,2.16,2.59,2.99,4.83,2.6,1.14-.2,2.26-.56,3.34-.99,17.3-6.93,34.6-13.85,51.87-20.86,3.63-1.47,6.92-1.22,10.23,.81,15.68,9.64,31.38,19.23,47.06,28.86,1.73,1.06,3.39,2.25,5.08,3.38-1.05,.55-1.93,.62-2.82,.62-7.25,.02-14.5,.03-21.75,.03-13.83,0-27.66-.01-41.5-.02-3.81,0-6.06,1.93-6.09,5.43-.06,5.67-.07,11.33,.03,17,.08,4.09,1.25,5.17,5.26,5.31,.75,.03,1.5,0,2.25,0,20.42,0,40.83-.02,61.25,0,.77,0,1.53,.36,2.76,.67-.84,.64-1.14,.92-1.49,1.13-17.82,10.59-35.63,21.19-53.48,31.74-2.75,1.63-5.73,1.58-8.65,.29-3.19-1.42-6.34-2.93-9.56-4.29-13.64-5.77-27.29-11.52-40.96-17.23-3.67-1.53-5.98-.4-7.47,3.36-1.93,4.87-3.88,9.73-5.85,14.59-1.4,3.46-.5,5.75,2.93,7.27,10.11,4.49,20.23,8.97,30.34,13.47,1.45,.65,2.86,1.38,4.86,2.36-7.78,4.56-14.93,8.8-22.13,12.96-8.65,5-17.36,9.91-26.02,14.9-3.26,1.88-4.21,3.95-2.65,6.77,3.27,5.9,6.72,11.69,10.29,17.41,1.59,2.54,2.96,2.77,5.75,1.37,2.97-1.49,5.86-3.13,8.73-4.8,12.23-7.12,24.43-14.29,36.67-21.37,.74-.43,2.11-.65,2.69-.26,.59,.4,.87,1.74,.75,2.6-1.43,10.64-2.95,21.26-4.47,31.89-.62,4.31,.86,6.05,5.23,6.71,5.34,.8,10.66,1.75,15.95,2.83,3.93,.8,5.97-.29,6.54-4.3,1.2-8.4,2.29-16.82,3.34-25.24,1.18-9.5,2.26-19.01,3.39-28.51,.65-5.47,3.55-9.37,8.31-12.02,16.73-9.3,33.45-18.63,50.18-27.93,.41-.23,.98-.17,1.96-.33-.64,1.17-1,1.89-1.42,2.58-10.72,17.94-21.46,35.87-32.15,53.83-2.43,4.08-1.75,6.13,2.38,8.58,4.15,2.46,8.33,4.89,12.36,7.56,6.19,4.1,7.6,3.83,11.36-2.46,10.14-17.02,20.31-34.01,30.48-51.01,.53-.88,1.16-1.69,1.74-2.54,.7,1.1,.91,2.05,.91,3,.01,19.58-.05,39.16,.04,58.73,.02,3.79-1.39,6.44-4.41,8.66-14.37,10.55-28.66,21.2-42.98,31.81-3.3,2.44-3.6,4.88-1.09,8.02,3.48,4.36,6.93,8.75,10.32,13.18,2.69,3.51,4.9,3.82,8.4,1.09,8.86-6.92,17.73-13.82,26.62-20.69,.51-.39,1.51-.72,1.95-.48,.49,.27,.82,1.22,.85,1.89,.05,1.41-.22,2.82-.22,4.23,0,10.42,.05,20.83,.05,31.25,0,5.5-.1,11-.07,16.5,.02,3.54,1.46,5.62,4.31,5.68,6.82,.14,13.65,.05,20.47-.02,1.73-.02,2.76-1.04,2.92-2.82,.09-1,.18-1.99,.18-2.99-.04-17.24-.11-34.48-.11-51.73,0-.73,.41-1.77,.96-2.09,.49-.28,1.59,.02,2.17,.43,7.52,5.37,15,10.8,22.48,16.24,2.15,1.57,4.21,3.27,6.39,4.8,4.02,2.84,6.35,2.46,9.37-1.39,.67-.85,1.36-1.68,2.08-2.49,2.71-3.05,5.55-5.99,8.11-9.16,2.23-2.76,2.06-3.77-.5-6.15-1.21-1.13-2.56-2.11-3.89-3.11-13.63-10.29-27.19-20.66-40.94-30.78-4.16-3.06-5.99-6.6-5.95-11.78,.15-19.49,0-38.99-.02-58.49,0-.49,.3-.98,.63-1.97,.73,.96,1.21,1.49,1.58,2.08,6.1,10.03,12.24,20.04,18.25,30.12,4.57,7.65,8.97,15.39,13.46,23.09,2.35,4.03,5.15,4.87,8.9,2.6,4.92-2.97,9.8-5.99,14.68-9.02,4.45-2.77,4.75-3.67,2.09-8.13-8.99-15.09-18.07-30.13-27.08-45.2-2.07-3.47-4.04-7-6.05-10.51Z"/><path class="cls-1" d="M307.82,340.34c2.62,4.56,5.18,9.16,7.88,13.67,11.73,19.62,23.55,39.19,35.25,58.83,3.45,5.79,3.07,6.97-2.73,10.58-6.35,3.95-12.7,7.88-19.1,11.74-4.88,2.95-8.53,1.85-11.59-3.39-5.84-10.01-11.58-20.09-17.52-30.04-7.83-13.12-15.82-26.14-23.76-39.19-.47-.78-1.1-1.47-2.05-2.71-.42,1.29-.82,1.93-.82,2.56,.02,25.37,.23,50.75,.03,76.12-.05,6.74,2.32,11.36,7.74,15.34,17.9,13.16,35.55,26.67,53.28,40.05,1.72,1.3,3.48,2.58,5.06,4.04,3.32,3.1,3.55,4.41,.65,8-3.33,4.12-7.03,7.95-10.56,11.92-.93,1.05-1.84,2.13-2.71,3.24-3.93,5.02-6.96,5.51-12.2,1.81-2.83-2-5.51-4.21-8.31-6.25-9.73-7.08-19.47-14.14-29.26-21.13-.75-.53-2.19-.93-2.82-.57-.72,.42-1.25,1.77-1.25,2.72,0,22.44,.09,44.88,.14,67.32,0,1.3-.12,2.6-.24,3.89-.2,2.31-1.55,3.64-3.8,3.67-8.88,.09-17.76,.2-26.64,.02-3.71-.07-5.59-2.78-5.61-7.39-.04-7.16,.09-14.31,.09-21.47,0-13.56-.07-27.11-.07-40.67,0-1.84,.35-3.68,.29-5.51-.03-.87-.46-2.1-1.1-2.45-.57-.32-1.87,.11-2.53,.62-11.58,8.93-23.12,17.92-34.65,26.92-4.56,3.56-7.44,3.15-10.94-1.42-4.41-5.77-8.9-11.48-13.43-17.15-3.27-4.09-2.87-7.26,1.42-10.44,18.64-13.81,37.23-27.67,55.93-41.4,3.93-2.88,5.76-6.33,5.73-11.27-.12-25.48-.04-50.96-.05-76.44,0-1.24-.27-2.47-1.19-3.9-.76,1.1-1.58,2.16-2.26,3.3-13.23,22.12-26.47,44.24-39.67,66.38-4.88,8.19-6.72,8.54-14.78,3.2-5.24-3.47-10.68-6.63-16.08-9.83-5.37-3.19-6.26-5.86-3.1-11.17,13.91-23.37,27.89-46.71,41.83-70.06,.54-.9,1.01-1.85,1.84-3.36-1.28,.2-2.02,.13-2.55,.43-21.78,12.1-43.53,24.24-65.3,36.34-6.2,3.45-9.97,8.53-10.82,15.64-1.47,12.37-2.88,24.74-4.41,37.1-1.36,10.96-2.78,21.91-4.34,32.85-.74,5.21-3.4,6.64-8.51,5.59-6.88-1.41-13.81-2.65-20.75-3.69-5.69-.85-7.61-3.12-6.81-8.73,1.98-13.83,3.95-27.66,5.82-41.5,.15-1.12-.21-2.86-.98-3.38-.76-.52-2.53-.23-3.5,.33-15.94,9.22-31.81,18.55-47.73,27.81-3.73,2.17-7.5,4.32-11.36,6.25-3.63,1.82-5.42,1.53-7.49-1.78-4.65-7.44-9.14-14.99-13.39-22.66-2.03-3.67-.78-6.37,3.45-8.81,11.27-6.49,22.6-12.88,33.86-19.39,9.37-5.41,18.67-10.93,28.8-16.86-2.61-1.27-4.44-2.23-6.33-3.07-13.15-5.86-26.32-11.69-39.48-17.53-4.47-1.98-5.64-4.96-3.81-9.47,2.56-6.32,5.11-12.65,7.62-18.99,1.94-4.9,4.94-6.36,9.72-4.37,17.79,7.43,35.55,14.91,53.3,22.42,4.19,1.77,8.29,3.74,12.44,5.58,3.8,1.69,7.68,1.74,11.26-.37,23.23-13.72,46.41-27.52,69.6-41.3,.45-.27,.85-.63,1.94-1.47-1.59-.4-2.59-.87-3.59-.87-26.57-.03-53.14-.01-79.7,0-.98,0-1.95,.03-2.93,0-5.22-.17-6.75-1.59-6.85-6.9-.14-7.37-.12-14.75-.04-22.12,.05-4.55,2.97-7.06,7.93-7.06,18,0,36,.02,54,.02,9.43,0,18.87-.02,28.3-.04,1.15,0,2.3-.1,3.67-.81-2.2-1.47-4.35-3.01-6.61-4.4-20.41-12.53-40.84-25.02-61.24-37.56-4.3-2.64-8.58-2.98-13.31-1.06-22.47,9.12-44.99,18.12-67.5,27.14-1.4,.56-2.86,1.03-4.34,1.29-2.91,.51-5.12-.56-6.28-3.38-2.93-7.1-5.95-14.17-8.69-21.34-1.57-4.1-.11-7,4.16-8.93,13.72-6.19,27.48-12.29,41.18-18.52,1.23-.56,2.14-1.84,3.19-2.79-1.02-.86-1.94-1.9-3.08-2.56-12.2-7.04-24.42-14.04-36.66-21-6.78-3.86-13.61-7.63-20.41-11.45-6.51-3.65-7.13-6.47-3.18-12.8,3.5-5.61,6.82-11.32,10.14-17.04,3.31-5.71,6.23-6.51,11.97-3.19,19.4,11.25,38.81,22.49,58.23,33.71,.77,.44,1.71,.59,3.16,1.08-.5-4.12-.88-7.62-1.35-11.12-1.58-11.69-3.28-23.37-4.75-35.08-.83-6.65-.3-7.38,6.34-8.84,6.87-1.51,13.79-2.83,20.73-3.98,5.81-.96,8.17,1.02,8.96,6.96,3.13,23.72,6.26,47.44,9.36,71.16,.49,3.77,2.61,6.25,5.79,8.11,19.92,11.66,39.8,23.38,59.71,35.06,3.71,2.18,7.46,4.29,11.82,5.92-1.12-2.1-2.19-4.23-3.38-6.29-13.33-23.21-26.67-46.41-40.04-69.6-3.01-5.21-2.24-7.6,3.22-10.19,6.16-2.92,12.3-5.89,18.38-8.98,5.39-2.74,8.3-2.03,11.36,3.12,13.45,22.63,26.9,45.27,40.36,67.9,.86,1.44,1.82,2.82,3.48,4.05,.09-.77,.26-1.54,.26-2.3,.01-25.7-.08-51.4,.07-77.1,.04-6.04-1.98-10.47-6.83-14.2-17.96-13.81-35.72-27.88-53.56-41.83-5.49-4.29-5.75-7.38-1.32-12.75,4.41-5.35,8.7-10.81,12.92-16.31,3.23-4.21,5.69-4.63,9.77-1.31,11.76,9.58,23.5,19.2,35.31,28.73,.71,.57,1.99,.93,2.81,.69,.5-.14,.89-1.6,.89-2.47,0-21.57-.12-43.14-.11-64.71,0-9.01,1.12-10.05,10.16-10.11,6.28-.05,12.56-.04,18.85,.02,5.13,.05,7.35,2.29,7.35,7.39,.02,21.36,.02,42.72,.02,64.08,0,.33-.04,.66,.01,.97,.31,1.78,.64,3.56,.96,5.34,1.55-.77,3.31-1.28,4.63-2.35,11.21-9.06,22.34-18.23,33.51-27.34,4.4-3.58,7.23-3.07,10.47,1.62,4.74,6.86,9.55,13.68,14.38,20.48,2.52,3.55,2.13,6.38-1.59,9.16-17.99,13.41-35.96,26.85-54.04,40.14-5.98,4.39-8.9,9.91-8.82,17.42,.3,25.26,.36,50.52,.53,75.78,0,.81,.22,1.61,.48,3.44,1.18-1.6,1.9-2.42,2.45-3.34,13.84-23.16,27.66-46.34,41.48-69.51,.72-1.21,1.35-2.51,2.25-3.56,1.86-2.17,4.11-3.1,6.93-1.69,7.65,3.83,15.35,7.56,22.97,11.47,3.44,1.77,3.97,4.31,1.74,8.23-5.13,9.05-10.41,18.02-15.59,27.04-8.85,15.41-17.68,30.83-26.52,46.24-.42,.73-.78,1.5-.73,3.03,1.94-.85,3.99-1.51,5.81-2.57,14.01-8.24,27.96-16.59,41.96-24.85,7.19-4.24,14.41-8.42,21.67-12.54,4.18-2.37,6.48-5.74,7.1-10.57,2.99-23.31,6.09-46.61,9.18-69.91,.75-5.7,2.11-6.87,7.89-6.47,8.64,.6,17.28,1.32,25.91,2.06,3.91,.34,5.73,2.24,5.34,6.24-.61,6.24-1.65,12.44-2.46,18.67-1.31,10.09-2.59,20.19-3.84,30.29-.09,.7,.14,1.44,.28,2.68,3.52-1.86,6.77-3.46,9.9-5.26,17.64-10.17,35.26-20.4,52.88-30.61,3.95-2.29,6.84-1.64,8.93,2.35,3.77,7.2,7.34,14.49,11,21.74,1.38,2.73,.87,5.14-1.51,6.92-2.33,1.74-4.82,3.29-7.33,4.78-17.04,10.14-34.11,20.22-51.13,30.4-.98,.59-1.53,1.89-2.28,2.86,.96,.73,1.83,1.71,2.91,2.16,10.88,4.55,21.79,9.02,32.7,13.5,2.2,.9,4.47,1.66,6.64,2.63,3.84,1.7,5.22,4.53,3.86,8.45-2.75,7.87-5.59,15.71-8.56,23.5-1.62,4.25-4.64,5.31-9.26,3.35-11.76-4.99-23.48-10.08-35.23-15.1-10.66-4.55-21.35-9.01-31.98-13.63-3.27-1.42-6.26-1.29-9.29,.51-22.74,13.48-45.49,26.95-68.23,40.43-1.19,.7-2.31,1.52-4.29,2.84,1.86,.47,2.88,.95,3.9,.95,27.32,0,54.63-.08,81.95-.09,6.34,0,7.36,1.05,7.43,7.39,.07,7.15,.08,14.3,.03,21.45-.04,5.02-2.19,6.93-7.7,6.92-15.61-.03-31.23-.1-46.84-.14-11.26-.02-22.53-.03-33.79,0-.9,0-1.8,.33-2.7,.51-.1,.3-.2,.61-.3,.91,3.92,2.37,7.77,4.86,11.76,7.1,18.21,10.25,36.56,20.25,54.64,30.73,6.12,3.55,11.87,3.91,18.24,1.34,19.99-8.05,40.02-15.99,60.04-23.97,1.21-.48,2.41-.99,3.66-1.33,4.44-1.2,7,.02,8.99,4.16,3.14,6.54,6.31,13.06,9.47,19.6,2.39,4.95,1.51,7.31-3.53,9.4-14.8,6.14-29.61,12.24-44.38,18.44-.96,.4-2.01,1.39-2.29,2.32-.15,.5,1.1,1.71,1.95,2.2,19.26,11.07,38.55,22.09,57.84,33.09,6.08,3.47,6.78,5.94,3.58,12.1-3.04,5.86-5.92,11.8-8.84,17.72-2.44,4.93-5.63,6.15-10.27,3.48-18.95-10.94-37.85-21.97-56.77-32.98-.75-.44-1.4-1.12-2.2-1.36-.94-.29-2.28-.65-2.9-.21-.65,.46-1.02,1.89-.88,2.8,.85,5.77,1.96,11.49,2.8,17.26,1.28,8.78,2.44,17.59,3.59,26.39,.71,5.42-1.15,7.5-6.49,8.29-6.84,1.02-13.66,2.28-20.44,3.64-5.4,1.08-8.45-.64-9.37-6.06-2.85-16.87-5.59-33.75-8.37-50.63-1.11-6.73-2.2-13.47-3.26-20.21-.63-4-2.6-6.94-6.16-9.03-22.87-13.49-45.68-27.06-68.53-40.59-.61-.36-1.32-.55-1.98-.83-.23,.21-.46,.43-.69,.64Z"/></svg>